<?xml version="1.0" standalone="no"?>
<!DOCTYPE svg PUBLIC "-//W3C//DTD SVG 20010904//EN"
 "http://www.w3.org/TR/2001/REC-SVG-20010904/DTD/svg10.dtd">
<svg version="1.0" xmlns="http://www.w3.org/2000/svg"
 width="1095.000000pt" height="342.000000pt" viewBox="0 0 1095.000000 342.000000"
 preserveAspectRatio="xMidYMid meet">

<g transform="translate(0.000000,342.000000) scale(0.100000,-0.100000)"
fill="#000000" stroke="none">
<path d="M2487 3000 c-54 -10 -56 -18 -9 -37 23 -9 42 -19 42 -23 0 -4 -27
-11 -61 -14 -214 -25 -466 -159 -575 -307 -44 -60 -43 -70 4 -53 42 15 72 18
72 7 -1 -5 -28 -35 -61 -68 -113 -111 -190 -249 -227 -405 -23 -94 -36 -200
-25 -200 3 0 28 24 54 53 26 28 49 50 52 47 3 -3 -5 -37 -18 -76 -54 -166 -58
-341 -11 -489 14 -44 32 -89 40 -100 13 -18 15 -16 21 30 9 68 24 123 34 129
4 3 13 -30 19 -74 21 -146 93 -294 202 -413 50 -54 126 -114 135 -105 3 3 1
29 -5 58 -11 59 -13 143 -4 153 3 3 51 -47 106 -111 107 -127 173 -242 184
-325 6 -41 9 -45 22 -35 23 19 70 126 78 175 3 24 10 46 15 48 13 9 76 -84 96
-140 12 -35 18 -80 18 -151 l0 -102 25 10 c37 14 147 76 215 121 74 50 170
148 210 216 17 28 34 51 38 51 5 0 7 -25 5 -55 -4 -68 6 -70 59 -12 88 95 132
209 142 367 6 93 9 102 19 78 6 -16 14 -28 17 -28 12 0 50 23 73 43 l23 21 6
-22 c3 -12 11 -22 18 -22 15 0 55 46 55 63 0 6 12 26 27 45 31 41 41 115 24
177 -8 29 -7 44 2 61 7 12 20 36 31 54 11 21 21 66 26 119 3 47 14 100 23 118
30 57 23 88 -35 150 -29 30 -87 83 -128 116 -111 88 -109 87 -109 175 0 85
-12 135 -37 163 -14 16 -15 19 -2 24 8 3 27 1 43 -5 15 -6 29 -9 31 -7 9 9
-26 101 -50 132 -14 18 -51 46 -81 60 -30 15 -55 29 -55 32 0 12 25 51 49 76
22 24 23 29 11 38 -16 10 -154 7 -180 -4 -10 -5 -23 4 -39 28 -45 67 -126 134
-178 150 -21 6 -23 3 -23 -34 l0 -41 -48 24 c-78 39 -160 56 -268 55 -55 -1
-116 -5 -137 -9z m368 -103 c39 -19 88 -53 109 -76 22 -22 43 -38 48 -35 4 3
8 25 8 50 0 79 42 46 94 -73 11 -24 23 -43 29 -43 5 0 22 11 39 25 16 14 38
25 48 25 18 0 18 -3 5 -47 -24 -79 -22 -83 35 -83 41 0 56 -5 82 -29 l33 -29
-30 -7 c-42 -9 -85 -26 -85 -34 0 -3 16 -19 35 -34 39 -31 71 -74 62 -84 -4
-3 -47 21 -97 53 -84 55 -90 61 -90 93 0 33 -1 34 -19 17 -26 -23 -36 -16 -50
36 -16 64 -28 78 -36 42 -21 -103 -38 -106 -113 -26 -89 94 -187 143 -119 60
31 -39 67 -99 67 -113 0 -20 -42 4 -102 60 -74 68 -134 98 -223 109 -70 9 -91
-8 -28 -23 90 -23 153 -59 229 -133 41 -39 74 -79 74 -88 0 -46 -64 -168 -134
-254 -93 -116 -116 -160 -116 -228 l0 -53 30 62 c16 36 56 92 92 130 94 101
116 134 152 225 39 100 68 123 156 123 45 0 68 -7 125 -39 88 -48 175 -117
198 -155 9 -16 17 -44 17 -63 0 -32 11 -44 156 -167 85 -74 152 -137 147 -142
-13 -13 -176 -14 -200 0 -21 11 -23 10 -23 -14 0 -29 29 -61 78 -87 42 -22 55
-58 42 -108 -14 -52 -65 -93 -157 -126 -64 -23 -83 -26 -142 -20 -57 5 -73 3
-86 -10 -23 -23 -15 -57 18 -72 26 -13 38 -11 130 21 56 19 125 44 153 55 51
21 52 21 69 2 31 -34 31 -107 1 -174 -25 -55 -27 -58 -40 -40 -8 10 -16 17
-18 14 -2 -3 -16 -22 -32 -43 l-28 -38 -38 43 c-29 32 -41 40 -50 32 -9 -9
-17 -6 -34 11 -24 24 -89 50 -148 60 -34 5 -39 11 -77 88 -33 67 -58 99 -125
164 l-84 81 -9 -31 -10 -32 -12 30 c-15 37 -46 174 -62 275 l-12 75 -23 -50
c-69 -149 -99 -313 -73 -402 l13 -48 12 90 c13 92 39 173 47 145 2 -8 27 -88
56 -177 47 -148 51 -170 51 -260 l1 -98 22 40 c18 34 22 56 22 147 0 60 3 108
8 108 13 0 85 -120 108 -179 37 -97 44 -165 27 -263 -8 -48 -11 -85 -5 -81 20
12 66 128 77 194 7 38 16 67 21 63 16 -9 42 -66 60 -129 l17 -60 16 37 c9 21
16 45 17 55 0 10 4 27 8 38 15 37 45 -40 45 -115 0 -65 -30 -176 -58 -215 -12
-17 -15 -14 -30 37 -18 64 -51 113 -59 88 -3 -8 -13 -40 -22 -70 -10 -30 -32
-82 -50 -115 -34 -60 -100 -145 -114 -145 -4 0 -4 28 1 63 8 58 4 151 -10 185
-3 9 -18 -34 -32 -94 -33 -131 -65 -198 -127 -262 l-46 -47 -13 65 c-23 122
-79 225 -164 305 -17 17 -45 59 -61 94 -16 35 -65 112 -108 170 -68 91 -107
156 -135 221 -12 29 5 -90 18 -128 8 -22 40 -79 71 -127 65 -99 87 -144 111
-231 16 -61 13 -141 -6 -129 -4 3 -22 30 -39 60 -17 30 -68 98 -113 151 -151
180 -182 246 -194 421 -7 91 -8 94 -21 68 -20 -38 -27 -156 -15 -245 8 -54 8
-96 0 -150 l-11 -74 -39 44 c-22 24 -54 71 -72 104 -91 165 -105 318 -48 510
18 60 30 111 28 114 -8 8 -101 -119 -142 -194 -48 -88 -54 -83 -54 45 0 150
57 316 165 476 25 37 45 69 45 72 0 9 -91 -44 -153 -89 -37 -28 -71 -48 -74
-44 -12 12 56 177 101 245 90 135 250 257 403 306 85 28 55 38 -86 31 l-126
-7 35 31 c54 47 197 116 289 140 70 19 102 21 195 17 61 -3 123 -8 139 -12 38
-10 35 6 -10 56 l-38 42 70 -5 c54 -4 86 -13 140 -41z m786 -1211 c-6 -15 -15
-24 -21 -21 -15 10 -12 53 8 88 l17 32 3 -36 c2 -19 -2 -48 -7 -63z"/>
<path d="M2455 2636 c-54 -24 -92 -63 -105 -111 -10 -36 -18 -47 -39 -51 -76
-17 -110 -28 -153 -50 -43 -22 -65 -41 -57 -49 2 -2 38 3 79 10 98 18 145 18
159 1 18 -22 4 -40 -60 -75 -68 -37 -165 -123 -193 -171 l-19 -33 63 43 c89
60 220 115 220 92 0 -4 -18 -26 -41 -47 -138 -135 -244 -335 -268 -509 -18
-130 -12 -138 24 -31 47 136 105 250 174 343 55 72 128 142 149 142 6 0 -6
-48 -26 -107 -33 -99 -36 -118 -36 -228 -1 -161 33 -294 97 -379 14 -19 15
-16 22 35 8 57 19 87 27 73 3 -5 11 -27 18 -49 22 -70 71 -157 145 -260 91
-127 118 -175 141 -250 27 -91 37 -91 32 0 -5 98 -27 150 -125 296 -39 58 -84
131 -100 164 -34 67 -63 173 -63 227 0 51 -11 99 -21 92 -5 -3 -26 -37 -45
-77 -45 -88 -54 -78 -61 67 -12 226 56 395 229 570 43 43 78 80 78 81 0 1 -15
5 -32 9 l-33 7 23 17 c22 17 22 18 5 35 -24 21 -86 47 -114 47 -11 0 -34 -8
-50 -17 -27 -16 -28 -18 -12 -36 12 -12 16 -31 14 -58 -1 -25 4 -50 14 -65 15
-24 15 -27 -1 -52 l-17 -26 -37 41 c-56 64 -76 154 -46 211 28 53 62 75 124
80 49 3 65 -1 114 -27 58 -31 88 -39 88 -22 0 15 -80 82 -116 97 -42 17 -129
18 -169 0z"/>
<path d="M3115 2251 c-16 -4 -41 -13 -54 -21 -24 -12 -24 -13 -5 -27 10 -8 41
-22 69 -31 27 -9 74 -29 105 -44 30 -15 56 -26 57 -24 4 4 -66 102 -94 132
-23 25 -30 26 -78 15z"/>
<path d="M3920 2236 l0 -396 90 0 90 0 0 151 0 150 28 -3 c24 -3 37 -21 107
-150 l80 -148 107 0 107 0 -68 118 c-38 64 -79 134 -91 155 -12 21 -21 39 -19
40 2 1 27 14 54 28 69 36 108 99 113 184 2 35 -1 79 -7 98 -18 53 -74 112
-133 138 -49 21 -69 23 -255 27 l-203 4 0 -396z m381 205 c38 -39 40 -97 5
-138 -23 -27 -28 -28 -113 -28 l-88 0 -3 98 -3 97 86 0 c82 0 88 -1 116 -29z"/>
<path d="M4877 2618 c-37 -98 -277 -766 -277 -771 0 -4 44 -6 97 -5 l96 3 22
65 22 65 151 3 151 3 22 -71 23 -70 98 0 c54 0 98 2 98 5 0 2 -64 180 -141
395 l-141 390 -108 0 c-77 0 -109 -4 -113 -12z m166 -355 l46 -133 -99 0 -98
0 46 140 c26 77 49 136 53 132 3 -4 27 -67 52 -139z"/>
<path d="M5420 2623 c0 -3 62 -181 138 -395 l137 -388 119 2 119 3 138 390
c77 215 139 391 139 393 0 1 -45 2 -99 2 l-100 0 -96 -296 c-53 -163 -100
-293 -105 -288 -4 5 -50 138 -101 297 l-93 287 -98 0 c-54 0 -98 -3 -98 -7z"/>
<path d="M6525 2618 c-122 -334 -275 -763 -275 -769 0 -6 42 -8 97 -7 l96 3
22 65 22 65 149 3 150 2 23 -70 22 -70 101 0 c76 0 99 3 95 13 -2 6 -67 184
-143 395 l-138 382 -108 0 c-78 0 -110 -4 -113 -12z m164 -348 c22 -69 41
-128 41 -133 0 -4 -43 -7 -96 -7 -73 0 -95 3 -92 13 3 6 24 70 48 140 23 71
46 125 50 120 4 -4 26 -64 49 -133z"/>
<path d="M7120 2235 l0 -395 95 0 95 0 2 241 3 242 160 -241 160 -242 93 0 92
0 0 395 0 395 -90 0 -90 0 0 -234 c0 -129 -4 -237 -9 -240 -4 -3 -79 102 -166
234 l-157 240 -94 0 -94 0 0 -395z"/>
<path d="M8197 2618 c-37 -98 -277 -766 -277 -771 0 -4 44 -6 97 -5 l96 3 22
65 22 65 151 3 151 3 22 -71 23 -70 98 0 c54 0 98 2 98 4 0 3 -59 168 -131
368 -72 200 -136 375 -141 391 l-10 27 -108 0 c-77 0 -109 -4 -113 -12z m166
-355 l46 -133 -98 0 -99 0 46 140 c26 77 49 136 53 132 3 -4 27 -67 52 -139z"/>
<path d="M8800 2235 l0 -395 90 0 90 0 2 243 3 242 163 -242 162 -243 95 0 95
0 -2 393 -3 392 -92 3 -93 3 -2 -247 -3 -246 -162 246 -162 246 -90 0 -91 0 0
-395z"/>
<path d="M6267 1693 c-3 -5 -55 -132 -117 -283 -61 -151 -128 -309 -148 -350
-35 -71 -40 -76 -89 -95 -36 -14 -53 -26 -53 -37 0 -16 14 -18 160 -18 153 0
160 1 160 20 0 15 -9 21 -41 26 -22 4 -50 15 -62 24 l-21 18 18 58 c10 33 25
71 32 87 l15 27 132 0 133 0 38 -92 c42 -104 41 -110 -34 -122 -31 -5 -40 -11
-40 -26 0 -19 7 -20 210 -20 202 0 210 1 210 20 0 13 -10 22 -36 29 -20 6 -47
20 -60 32 -14 13 -75 154 -160 365 l-138 344 -52 0 c-29 0 -55 -3 -57 -7z m42
-336 c28 -70 51 -130 51 -132 0 -3 -50 -5 -111 -5 -102 0 -111 1 -105 18 65
171 102 260 108 254 3 -4 29 -64 57 -135z"/>
<path d="M4224 1675 c-8 -20 11 -35 44 -35 13 0 34 -11 47 -25 l25 -24 0 -296
c0 -334 2 -326 -79 -339 -33 -5 -42 -10 -39 -24 3 -15 23 -17 211 -20 199 -2
207 -2 207 17 0 14 -9 21 -32 26 -18 4 -43 13 -55 21 -22 14 -23 20 -23 149 0
122 2 135 18 135 19 -1 106 -110 203 -254 l64 -95 148 -1 c139 0 147 1 147 20
0 14 -9 21 -37 26 -24 5 -50 21 -77 49 -40 41 -218 267 -224 284 -2 5 7 11 20
14 48 13 117 66 139 108 17 34 20 55 17 106 -3 55 -8 67 -38 98 -61 62 -92 68
-402 73 -254 3 -279 2 -284 -13z m443 -54 c53 -24 73 -62 73 -138 0 -108 -49
-164 -150 -171 l-60 -4 0 166 0 166 48 0 c26 0 66 -9 89 -19z"/>
<path d="M5120 1670 c0 -14 11 -22 43 -31 23 -6 48 -16 55 -21 9 -8 12 -84 12
-319 0 -343 2 -331 -69 -343 -32 -5 -41 -11 -41 -26 0 -20 7 -20 363 -20 l364
0 1 58 c1 31 5 85 8 120 6 56 5 62 -12 62 -13 -1 -35 -27 -67 -81 -60 -99 -79
-109 -211 -109 -137 0 -135 -2 -137 180 l-1 145 75 0 c89 0 108 -12 132 -86
12 -36 22 -49 36 -49 18 0 19 9 19 160 0 154 -1 160 -20 160 -13 0 -24 -10
-30 -27 -30 -83 -59 -103 -150 -103 l-60 0 -2 123 c-1 130 -1 158 1 170 2 13
190 8 225 -7 36 -15 93 -79 102 -113 4 -14 14 -23 25 -23 17 0 19 9 19 100 l0
100 -340 0 c-331 0 -340 -1 -340 -20z"/>
<path d="M6780 1670 c0 -14 11 -22 43 -30 23 -6 48 -19 55 -28 9 -12 12 -92
12 -318 0 -337 2 -326 -69 -338 -32 -5 -41 -11 -41 -26 0 -20 7 -20 354 -20
l354 0 6 78 c4 42 9 98 12 125 4 42 3 47 -15 47 -14 0 -30 -19 -56 -69 -20
-37 -50 -81 -66 -97 -29 -28 -36 -29 -132 -32 -159 -6 -147 -33 -147 343 -1
283 1 311 16 322 10 7 28 13 40 13 36 0 54 11 54 31 0 18 -11 19 -210 19 -202
0 -210 -1 -210 -20z"/>
<path d="M7470 1580 c0 -102 1 -110 19 -110 14 0 30 18 52 61 47 87 77 109
150 109 l59 0 0 -323 c0 -365 4 -349 -77 -362 -33 -5 -43 -11 -43 -26 0 -18
10 -19 215 -19 208 0 215 1 215 20 0 15 -11 22 -45 31 -76 19 -75 13 -75 367
l0 314 69 -4 c83 -4 97 -14 143 -104 21 -42 39 -64 51 -64 15 0 17 11 17 85 0
83 0 85 24 85 43 0 84 -48 180 -209 134 -225 126 -204 126 -330 0 -124 -5
-132 -82 -146 -28 -5 -38 -12 -38 -26 0 -18 11 -19 215 -19 208 0 215 1 215
20 0 15 -11 22 -46 31 -68 17 -77 38 -72 162 3 100 5 105 47 179 24 42 78 127
120 189 68 101 82 117 128 139 34 16 53 31 53 43 0 15 -14 17 -145 17 -136 0
-145 -1 -145 -19 0 -15 10 -21 39 -26 53 -9 68 -27 52 -63 -20 -45 -164 -282
-172 -282 -3 0 -38 55 -77 123 -90 157 -104 186 -99 200 2 7 25 17 52 22 33 7
49 16 51 28 2 16 -36 17 -587 17 l-589 0 0 -110z"/>
</g>
</svg>
